<?xml version="1.0" encoding="UTF-8"?>
<svg id="Laag_1" xmlns="http://www.w3.org/2000/svg" version="1.1" viewBox="0 0 66.73 64.39">
  <!-- Generator: Adobe Illustrator 30.1.0, SVG Export Plug-In . SVG Version: 2.1.1 Build 136)  -->
  <defs>
    <style>
      .st0 {
        fill: #f6a11a;
      }
    </style>
  </defs>
  <path class="st0" d="M63.39,27.9l-27.82,6.26,31.15-19.42-3.65-7.62-30.47,10.63,16-10.67-.28-.42s-.05-.05-.05-.08l-.4-.6s0,.08-.02.11c-.05.09-.18.13-.27.07-.09-.05-.13-.18-.07-.27.05-.09.16-.11.25-.07l-3.88-5.82L0,29.27l3.76,7.55,3.9-1.36c.04-.07.12-.12.2-.1.01,0,.01.01.02.02l21.94-7.66-20.02,12.48,3.18,7.76,17.56-3.95-6.59,3.26,2.35,8.04,9.07-.99-5.06,2.38.16.34s.09-.01.13,0c.16.07.23.26.16.42-.01.03-.04.04-.06.06l1.27,2.71c.09.08.14.18.14.3l1.2,2.55s.09,0,.12.02c.13.08.18.24.1.38,0,.01-.02.01-.03.02l.42.9,3.77-1.77s-.05,0-.07,0c-.11-.06-.15-.21-.08-.32s.21-.15.31-.08c.1.06.13.18.09.29l.77-.36c-.07,0-.13,0-.19-.03-.16-.1-.22-.3-.12-.46.09-.16.3-.22.46-.12.16.09.22.3.12.46-.02.03-.05.03-.07.05l1.15-.54c-.02-.06-.02-.13.01-.19.06-.11.2-.14.31-.08.04.02.05.06.07.09l2.09-.98s0,0,0,0c.06-.11.18-.14.3-.13l19.18-9.02-2.27-8.07-10.53,1.15,16.96-8.39-2.82-7.96Z"/>
</svg>