<?xml version="1.0" encoding="UTF-8"?>
<svg id="Laag_1" data-name="Laag 1" xmlns="http://www.w3.org/2000/svg" viewBox="0 0 99.94 108.59">
  <defs>
    <style>
      .cls-1 {
        fill: #1d1d1b;
      }
    </style>
  </defs>
  <path class="cls-1" d="M98.78,45.08c-.05-3.18-.38-6.35-1.01-9.49-1.84-11.33-7.75-22.91-18.51-27.86-.3,1.36-.63,2.67-1,3.93,4.97,3.62,8.56,8.84,10.89,14.55.04,0,.08,0,.12.01.09.05.12.16.07.25-.02.03-.04.04-.07.05.44,1.1.84,2.2,1.19,3.32-.11-.13-.21-.26-.32-.39-2.34-2.98-5.09-5.61-8.13-7.84-.35-.42-.71-.84-1.06-1.26,0,0,0,.02,0,.02-.1.17-.32.24-.49.14-.17-.1-.24-.32-.14-.49.05-.09.13-.14.22-.17,0,0-.02-.02-.02-.03-4.77-5.68-10.63-10.52-17.19-14.01.7.11,1.4.25,2.1.4.04-.03.1-.05.15-.02.03.01.04.04.05.06,3.42.75,6.74,1.92,9.79,3.59.47.26,2.4,1.53,2.85,1.82.33-1.15.74-2.68,1-3.93-5.68-2.4-13.3-3.84-19.34-3.58-.57-.25-1.14-.49-1.72-.72.04.05.05.11.02.17-.04.08-.14.1-.22.06-.08-.04-.1-.14-.06-.22.02-.04.06-.06.09-.07-4.02-1.6-8.25-2.68-12.6-3.14-6.05-.69-12.11.16-18.01,1.56-5.66,1.08-11.4,3.01-15.44,7.3C6.75,14.73,3.83,22.18,1.92,29.53-.02,37.31-.51,45.41.55,53.34c-.94,5.79-.63,11.71.89,17.3.96,12.51,6.67,24.63,17.15,31.94,4.78,3.57,10.36,5.32,16.13,5.84,0-.03-.03-.05-.03-.08,0-.12.1-.21.22-.2.12,0,.21.11.2.22,0,.03-.02.05-.04.08,5.6.45,11.38-.23,16.78-1.52,17.8-3.48,38.71-15.94,44.04-34.23.01-.04.02-.07.03-.11-.12-.06-.2-.19-.19-.33,0-.2.17-.35.37-.34.18-.72.34-1.44.47-2.17-.09-.03-.15-.1-.15-.19,0-.11.1-.2.22-.19.1-.58.19-1.17.26-1.75,2.16-5.18,3.3-10.7,2.98-16.28-.15-2.13-.54-4.21-1.11-6.24M66.31,6.27s.04.05.02.08c-.02.03-.05.04-.08.02-.03-.02-.04-.05-.02-.08.02-.03.05-.04.08-.02M95.32,30.41s.05.06.03.1c-.02.03-.06.05-.1.03-.03-.02-.05-.06-.03-.1.02-.03.06-.05.1-.03M95.07,53.56c0,.1-.09.17-.18.16-.1,0-.17-.09-.16-.18,0-.1.09-.17.18-.16.1,0,.17.09.16.18M91.7,46.94c.06,0,.1.05.1.11,0,.06-.05.1-.11.1-.06,0-.1-.05-.1-.11,0-.06.05-.1.11-.1M83.5,23.86c.1-.19.34-.25.53-.15.19.1.25.34.15.53-.1.19-.34.25-.53.15-.19-.1-.25-.34-.15-.53M82.72,22.81c.04-.07.13-.1.2-.06.07.04.1.13.06.2-.04.07-.13.1-.2.06-.07-.04-.1-.13-.06-.2M78.18,18.05c.04-.07.12-.09.19-.05.07.04.09.12.05.19-.04.07-.12.09-.19.05-.07-.04-.09-.12-.05-.19M77.13,19.55c.09-.16.28-.21.44-.12.15.09.21.28.12.44-.09.15-.28.21-.44.12-.15-.09-.21-.28-.12-.44M73.57,16.61c.08-.15.26-.2.41-.12.14.08.2.26.11.41-.08.14-.26.2-.41.12-.15-.08-.2-.26-.11-.41M72.35,14.79c.09-.16.29-.22.45-.13s.22.29.13.45c-.09.16-.29.22-.46.13-.16-.09-.22-.29-.13-.45M69.39,14.39s.08-.06.13-.04c.05.03.06.08.04.13-.03.05-.08.06-.13.04s-.06-.08-.04-.13M68.19,11.62c.07-.13.23-.17.36-.1.13.07.17.23.1.36-.07.13-.23.17-.36.1-.13-.07-.17-.23-.1-.36M65.46,10.91c.07-.12.22-.17.35-.1.12.07.17.22.1.35-.07.12-.22.17-.35.1-.12-.07-.17-.22-.1-.35M64.96,5.73c.03-.06.1-.08.16-.04.06.03.08.1.05.16s-.1.08-.16.05c-.06-.03-.08-.1-.05-.16M63.17,5.54s.08-.06.12-.03c.04.02.06.08.03.12-.02.04-.08.06-.12.03-.04-.02-.06-.08-.03-.12M62.49,4.81c.04-.08.15-.11.23-.07.08.05.11.15.07.23-.05.08-.15.11-.23.07-.08-.05-.11-.15-.07-.23M62.71,9.99c1.48,1,2.9,2.09,4.27,3.24.03,0,.07,0,.1.01.07.04.11.11.13.18.78.67,1.56,1.34,2.31,2.05-7.93-2.47-16.47-3.04-24.6-1.24-9.59,1.63-19.16,4.95-26.35,11.74,2.47-3.03,5.19-5.81,8.08-8.27,5.98-5.42,14.94-10.01,21.93-11.83,1.8-.29,3.65-.48,5.53-.56,3,1.3,5.88,2.88,8.59,4.69M18.69,30.67c0,.06-.05.1-.11.1-.06,0-.1-.05-.1-.11,0-.06.05-.1.11-.1.06,0,.1.05.1.11M15.87,7.6c.03-.05.09-.07.14-.04.05.03.07.09.04.14-.03.05-.09.07-.14.04-.05-.03-.07-.09-.04-.14M15.81,8.36s.05.07.03.11c-.02.04-.07.05-.11.03-.04-.02-.05-.07-.03-.11.02-.04.07-.05.11-.03M14.73,6.99s.08-.06.12-.03c.04.02.06.08.03.12-.02.04-.08.06-.12.03-.04-.02-.06-.08-.03-.12M8.79,22.3s.03.05.02.07c-.01.02-.05.03-.07.02-.02-.01-.03-.05-.02-.07.01-.02.05-.03.07-.02M9.12,23.04s-.05,0-.07,0c-.06-.03-.08-.1-.04-.16.03-.06.1-.08.16-.05.01,0,.01.02.02.03C12.82,12.43,18.26,4.49,28.36,1.71c1.03-.15,2.17-.27,3.49-.39,7.26-.57,14.51.79,21.21,3.54-2.88.45-5.73,1.08-8.52,1.82-16.43,3.94-30.74,15.99-38.59,31.04.41-4.22,1.22-8.4,2.44-12.46.23-.75.48-1.49.73-2.21M17.33,31.34c-.07.12-.22.16-.34.1-.12-.07-.16-.22-.1-.34.07-.12.22-.16.34-.1.12.07.16.22.1.34M15.83,33.65s-.03.06-.06.05c-.03,0-.06-.03-.05-.06,0-.03.03-.06.06-.05.03,0,.05.03.05.06M15.15,34.95c-.06.11-.2.15-.31.09-.11-.06-.15-.2-.09-.31.06-.11.2-.15.31-.09.11.06.15.2.09.31M11.07,40.28c-.14.25-.46.34-.7.2-.25-.14-.34-.46-.2-.71.14-.25.46-.34.71-.2.25.14.34.46.2.71M6.99,48.62c-.07.12-.22.17-.34.1-.12-.07-.16-.22-.1-.34.07-.12.22-.16.34-.1.12.07.16.22.1.34M8.14,25.52c0,.08-.08.15-.16.14-.08,0-.15-.07-.14-.16,0-.08.08-.15.16-.14.08,0,.15.08.14.16M7.8,24.32c.04-.07.13-.1.2-.06.07.04.1.13.06.2-.04.07-.13.1-.2.06-.07-.04-.1-.13-.06-.2M7.32,24.46s.05.06.03.1c-.02.04-.06.05-.1.03-.03-.02-.05-.06-.03-.1.02-.04.06-.05.1-.03M6.77,25.29s.04.05.02.08c-.02.03-.05.04-.08.02-.03-.02-.04-.05-.02-.08.01-.03.05-.04.08-.02M6.47,26.4c.04-.07.13-.1.2-.06s.09.13.06.2c-.04.07-.13.1-.2.06s-.1-.13-.06-.2M6.4,29.21c.07,0,.13.07.13.14,0,.07-.07.13-.14.13s-.13-.07-.13-.14c0-.07.07-.13.14-.13M6.08,23.75c.06,0,.1.05.1.11,0,.06-.05.1-.11.1-.06,0-.1-.05-.1-.11,0-.06.05-.1.11-.1M6.18,27.76s-.05.04-.08.02c-.03-.02-.04-.05-.02-.08.02-.03.05-.04.08-.02.03.02.04.05.02.08M6.13,33.18c.11,0,.2.1.2.22,0,.11-.1.2-.22.2-.11,0-.2-.1-.2-.22,0-.11.1-.2.22-.2M5.55,28.49s.08-.06.13-.04c.05.03.06.08.04.13-.03.05-.09.06-.13.04-.05-.03-.06-.08-.04-.13M5.55,29.34s.04.05.02.08c-.02.03-.05.04-.08.02-.03-.02-.04-.05-.02-.08.02-.03.05-.04.08-.02M1.56,61.55c-.08.14-.26.19-.4.11-.14-.08-.19-.26-.11-.4.08-.14.26-.19.4-.11.14.08.19.26.11.4M1.86,58.4c-.14.26-.47.35-.72.2-.26-.14-.35-.47-.2-.72s.47-.35.72-.21c.26.14.35.47.2.72M3.01,60.2c-.11-.06-.16-.21-.09-.32.06-.11.21-.16.33-.09.11.06.16.21.09.32-.06.12-.21.16-.33.09M4.07,70.13c-.12.22-.4.29-.61.17-.22-.12-.29-.4-.17-.62.12-.22.4-.29.62-.17.22.12.29.4.17.62M4.67,22.68c0-.12.11-.22.23-.21.12,0,.22.11.21.23,0,.12-.11.22-.23.21-.12,0-.22-.11-.21-.23M4.79,26.24c0-.08.07-.14.16-.14s.14.07.14.15c0,.08-.07.14-.16.14s-.14-.07-.14-.15M6.01,45.63c-.16.28-.51.38-.79.23-.28-.16-.38-.51-.23-.79.16-.28.51-.38.79-.23.28.16.38.51.23.79M6.71,79.26c-.14,0-.26-.13-.25-.28,0-.15.13-.26.28-.25.15,0,.26.13.25.27,0,.15-.13.26-.28.25M6.73,76.27c-.1-.06-.14-.19-.08-.29.06-.1.19-.14.29-.08.1.06.14.19.08.29-.06.1-.19.14-.29.08M7.28,82.03c-.14,0-.25-.13-.24-.27,0-.14.13-.25.27-.24.14,0,.25.13.24.27,0,.14-.13.25-.27.24M7.39,73.78c0-.18.17-.33.35-.32.18,0,.33.17.32.35,0,.18-.17.33-.35.32-.18,0-.33-.17-.32-.35M7.91,67.31c0-.08.07-.14.15-.13.08,0,.14.07.13.15,0,.08-.07.14-.15.13-.08,0-.14-.07-.13-.15M8.08,89.79c-.1,0-.18-.09-.17-.19,0-.1.09-.18.19-.17s.18.09.17.19c0,.1-.09.18-.19.17M8.19,86.92c-.2-.01-.36-.18-.35-.39,0-.2.18-.36.38-.35.2.01.36.18.35.39,0,.2-.18.36-.39.35M8.51,71.91c0-.17.15-.29.32-.29.17,0,.29.15.29.32,0,.17-.15.29-.32.28-.17,0-.29-.15-.29-.31M8.76,76.86c0,.05-.05.1-.1.09-.05,0-.09-.05-.09-.1,0-.05.05-.09.1-.09.05,0,.09.05.09.1M8.57,79.44c-.05.09-.17.13-.27.07-.09-.05-.13-.17-.08-.27.05-.09.17-.13.27-.07.09.05.13.17.07.27M8.92,79.83c-.16,0-.28-.14-.27-.3,0-.16.14-.28.3-.27.16,0,.28.14.27.3,0,.16-.14.28-.3.27M9.59,92.7c-.2-.01-.35-.18-.34-.37,0-.2.17-.35.37-.34.2.01.35.18.34.37-.01.2-.18.35-.37.34M9.85,67.73c-.18,0-.31-.16-.3-.34,0-.18.16-.31.34-.31.18,0,.31.16.3.34,0,.18-.16.31-.34.3M11.09,95.35c-.14,0-.26-.13-.25-.27,0-.14.13-.26.27-.25.14,0,.26.13.25.27,0,.14-.13.26-.27.25M11.57,90.95c-.15,0-.26-.13-.26-.28,0-.15.13-.26.28-.25.15,0,.26.13.26.28,0,.15-.13.26-.28.26M11.84,79.8c-.16.29-.52.39-.81.23-.29-.16-.39-.52-.23-.81.16-.29.52-.39.81-.23.29.16.39.52.23.81M13.47,96.37c-.11,0-.19-.1-.19-.21,0-.11.1-.19.21-.19.11,0,.19.1.19.21,0,.11-.1.19-.21.19M17.66,100.67c-.13,0-.22-.11-.22-.24,0-.13.11-.22.24-.22.13,0,.22.11.22.24,0,.13-.11.22-.24.22M22,102.01c-.06,0-.11-.06-.11-.12,0-.06.06-.11.12-.11.06,0,.11.06.11.12,0,.06-.06.11-.12.11M23.16,105.01c-.17,0-.3-.15-.29-.32,0-.17.15-.3.32-.29.17,0,.3.15.29.32,0,.17-.15.3-.32.29M25.47,105.13c-.17,0-.3-.15-.29-.32,0-.17.15-.3.32-.29.17,0,.3.15.29.32,0,.17-.15.3-.32.29M27.7,106.97c-.2,0-.36-.18-.35-.39s.18-.36.39-.35c.2,0,.36.18.35.39-.01.2-.18.36-.39.35M32.12,106.82c-.17,0-.3-.15-.29-.33,0-.17.15-.3.33-.29.17,0,.3.15.29.33,0,.17-.15.3-.33.3M73.34,96.21c-6.29,4.62-14.71,8.73-21.63,10.63-6.5.97-15.57.91-22.2-2.36-7.15-3.6-12.45-8.7-16.12-14.67,6.78,6.32,14.29,8.91,22.22,9.44,2.77.94,5.64,1.58,8.59,1.86,1.73.13,3.47.13,5.19.04,0-.08,0-.16.04-.23.11-.19.35-.26.54-.15.13.07.2.21.2.34,1.31-.09,2.61-.24,3.91-.43.06-.04.12-.05.19-.03,2.07-.31,4.13-.72,6.18-1.19,6.66-1.25,13.18-3.68,18.52-7.91-1.74,1.65-3.62,3.2-5.64,4.65M13.94,84.2c.09-.16.28-.21.44-.12.15.09.21.28.12.44-.09.15-.28.21-.44.12-.16-.09-.21-.28-.12-.44M16.81,84.51s.08-.06.12-.03.06.08.03.12c-.02.04-.08.06-.12.03-.04-.02-.06-.08-.03-.12M17.55,86.59c.05-.1.17-.13.27-.08.1.05.13.18.08.27-.05.1-.17.13-.27.08-.1-.05-.13-.18-.08-.27M20.88,90.53c.17.09.23.31.14.48-.1.17-.31.23-.48.14-.17-.1-.23-.31-.14-.48.1-.17.31-.23.48-.14M20.59,87.9c.04-.07.12-.09.19-.05.07.04.09.12.05.19-.04.07-.12.09-.19.05s-.09-.12-.05-.19M23.22,88.99c.05-.09.17-.12.26-.07.09.05.12.17.07.26-.05.09-.16.12-.26.07-.09-.05-.12-.17-.07-.26M25.81,91.38c.13-.24.43-.32.67-.19.24.13.32.43.19.67-.13.24-.43.32-.67.19-.24-.13-.32-.43-.19-.67M29.26,95.04c.04-.07.13-.1.2-.06.07.04.1.13.06.2-.04.07-.13.1-.2.06-.07-.04-.1-.13-.06-.2M32.46,95.85c.04-.07.12-.09.19-.05.07.04.09.12.05.19s-.12.09-.19.05c-.07-.04-.09-.12-.05-.19M34.5,94.67c.1-.17.32-.24.49-.14s.24.32.14.49c-.1.17-.32.24-.49.14-.17-.1-.24-.32-.14-.49M36.85,98.6c.18.1.24.32.14.5-.1.18-.32.24-.5.14-.18-.1-.24-.32-.14-.5.1-.18.32-.24.5-.14M36.83,96.43c.06-.1.18-.13.28-.08.1.06.14.18.08.28-.06.1-.18.13-.28.08-.1-.05-.14-.18-.08-.28M47.03,100.37c-.11-.06-.14-.19-.09-.3.06-.11.19-.15.3-.08.11.06.15.19.09.3-.06.11-.19.14-.3.08M46.57,99.5c-.62-.12-1.23-.28-1.84-.43,5.67-.54,11.49-1.75,17.36-3.1.32,0,.91-.28,1.03-.28-1.57.3-3.14.64-4.7.99-.53.09-1.06.19-1.6.28-4.94.82-10.19,1.45-15.39,1.15-.49-.17-.98-.34-1.46-.53,7.39.97,14.86-.24,22.11-1.81,3.93-.84,7.94-1.74,11.65-3.31-4.2,3.29-9.2,5.75-13.6,6.97-4.33.68-9.02.85-13.54.07M45.66,100.77c-.03.05-.09.07-.15.04-.05-.03-.07-.09-.04-.15.03-.05.09-.07.15-.04.05.03.07.09.04.15M44.06,98.71c-.04.07-.13.1-.2.06-.07-.04-.1-.13-.06-.2.04-.07.13-.1.2-.06.07.04.1.13.06.2M40.63,98.63c-.04.06-.12.09-.18.05-.06-.04-.09-.12-.05-.18.04-.06.12-.09.18-.05.06.04.09.12.05.18M89.94,66.6c-1.82,5.52-4.15,10.95-7.32,15.83-5.29,6-12.1,11.24-19.55,12.96-.62.15-1.13.29-1.6.42-11.11,2-23.25.71-33.33-5.13-.26-.15-.52-.29-.77-.44-6.98-5.67-12.59-13.21-16.35-21.22-.68-1.48-1.28-3-1.83-4.53-.07.1-.18.17-.32.17-.2,0-.35-.18-.34-.38.01-.2.18-.35.38-.34.03,0,.05.01.08.02-.59-1.69-1.1-3.41-1.53-5.15,1.26-9.92,5.11-19.73,11.08-27.8,2.98-3.88,6.49-7.38,10.57-10.11.07-.05.15-.09.22-.14,0,0,0-.01,0-.02.05-.08.13-.11.21-.12,3.39-2.27,7.79-4.21,11.48-5.36,0,0,0-.01,0-.02.03-.05.1-.07.15-.04,0,0,0,.01.01.02.42-.13.85-.26,1.25-.37,6.96-1.11,16.88-.17,24.2,2.76,3.5,1.24,6.75,3.02,9.72,5.2.05.06.1.12.15.18,2.77,3.38,5.43,6.87,7.47,10.74,4.28,7.85,6.33,16.74,7.34,25.57.08.63.12,1.25.17,1.87-.43,1.83-.94,3.64-1.54,5.43M91.65,50.07c-.11,0-.2-.1-.2-.22,0-.11.1-.2.22-.2.11,0,.2.1.19.22,0,.11-.1.2-.22.2M92.42,34.95c.09-.17.31-.23.47-.13.17.09.23.31.14.48-.09.17-.31.23-.47.13-.17-.09-.23-.31-.14-.48M92.88,36.67s-.08.06-.13.04c-.05-.02-.06-.08-.04-.13.02-.04.08-.06.13-.04.04.02.06.08.04.13M92.9,52.46c-.14,0-.24-.12-.24-.26,0-.14.12-.24.26-.24.14,0,.24.12.24.26,0,.14-.12.24-.26.24M93.2,29.31c.05-.09.16-.12.26-.07.09.05.12.17.07.26-.05.09-.17.12-.26.07-.09-.05-.12-.17-.07-.26M93.47,50.75c-.13,0-.23-.12-.22-.25,0-.13.12-.23.25-.22.13,0,.23.12.22.25,0,.13-.12.23-.25.22M94.45,37.97c-.12-.07-.17-.23-.1-.35.07-.12.23-.17.35-.1s.17.23.1.35c-.07.12-.23.17-.35.1M94.68,56.05c.01-.22.2-.39.42-.38.22.01.39.2.38.42-.01.22-.2.39-.42.38-.22-.01-.39-.2-.38-.42M95.45,62.56c-.08,0-.14-.07-.14-.15,0-.08.07-.14.15-.14.08,0,.14.07.14.15,0,.08-.07.14-.15.14M95.4,59.08c-.12,0-.22-.11-.21-.23,0-.12.11-.22.23-.21.12,0,.22.11.21.23s-.11.22-.23.21M96.68,33.45c.03-.05.1-.07.15-.04.05.03.07.1.04.15-.03.05-.1.07-.15.04-.05-.03-.07-.1-.04-.15M96.19,37.88s.05.07.03.1c-.02.04-.07.05-.1.03s-.05-.07-.03-.1c.02-.04.07-.05.1-.03M96.02,65.61s-.04-.05-.02-.08c.02-.03.05-.04.08-.02.03.02.04.05.02.08-.02.03-.05.04-.08.02M96.24,64.76s-.08.06-.13.04c-.05-.03-.06-.08-.04-.13.03-.05.09-.06.13-.04.05.03.06.08.04.13M96.62,63.95s-.04-.05-.02-.08c.02-.03.05-.04.08-.02.03.02.04.05.02.08-.02.03-.05.04-.08.02M96.59,60.13c-.06,0-.1-.05-.1-.11,0-.06.05-.11.11-.1.06,0,.1.05.1.11s-.05.1-.11.1M96.91,65.65c-.07,0-.13-.07-.12-.14,0-.07.07-.13.14-.13.07,0,.13.07.13.14,0,.07-.07.13-.14.13M97.25,62.71c-.04.07-.13.09-.2.06-.07-.04-.09-.13-.06-.2.04-.07.13-.1.2-.06s.09.13.06.2M97.24,61.56s-.04-.05-.02-.08c.02-.03.05-.04.08-.02.03.01.04.05.02.08-.02.03-.05.04-.08.02M97.77,60.76s-.05-.06-.03-.1c.02-.04.06-.05.1-.03.03.02.05.06.03.1-.02.04-.06.05-.1.03M97.9,40.49s-.05-.07-.03-.11c.02-.04.07-.05.11-.03.04.02.05.07.03.11-.02.04-.07.05-.11.03M98.32,60.49c.04-.07.13-.1.2-.06.07.04.1.13.06.2-.04.07-.13.1-.2.06-.07-.04-.1-.13-.06-.2M98.5,61.83c-.08,0-.15-.08-.14-.16,0-.08.08-.15.16-.14.08,0,.15.08.14.16,0,.08-.08.15-.16.14M99.26,58.56s-.03-.05-.02-.07c.01-.02.05-.03.07-.02.03.01.03.05.02.07-.01.02-.05.03-.07.02M73.69,30.58c13.1,13.1,13.1,34.34,0,47.43-13.1,13.1-34.34,13.1-47.43,0-13.1-13.1-13.1-34.34,0-47.43,13.1-13.1,34.34-13.1,47.43,0"/>
</svg>